<svg width="192" height="200" viewBox="0 0 192 200" fill="none" xmlns="http://www.w3.org/2000/svg">
<g filter="url(#filter0_d_718_542)">
<circle cx="96" cy="96" r="96" fill="#06D6A0"/>
</g>
<g clip-path="url(#clip0_718_542)">
<path d="M152.093 124.21C145.263 116.811 136.976 110.906 127.753 106.867C118.529 102.828 108.569 100.743 98.5 100.743C88.431 100.743 78.471 102.828 69.2475 106.867C60.0239 110.906 51.7366 116.811 44.9075 124.21C43.8531 125.376 43.2634 126.888 43.25 128.46V153.96C43.2723 155.636 43.9539 157.235 45.147 158.413C46.3401 159.59 47.9489 160.25 49.625 160.25H147.375C149.066 160.25 150.687 159.578 151.883 158.383C153.078 157.187 153.75 155.566 153.75 153.875V128.375C153.716 126.832 153.128 125.354 152.093 124.21Z" fill="black"/>
<path d="M98.5 92.25C114.93 92.25 128.25 78.9305 128.25 62.5C128.25 46.0695 114.93 32.75 98.5 32.75C82.0695 32.75 68.75 46.0695 68.75 62.5C68.75 78.9305 82.0695 92.25 98.5 92.25Z" fill="black"/>
</g>
<defs>
<filter id="filter0_d_718_542" x="0" y="0" width="192" height="200" filterUnits="userSpaceOnUse" color-interpolation-filters="sRGB">
<feFlood flood-opacity="0" result="BackgroundImageFix"/>
<feColorMatrix in="SourceAlpha" type="matrix" values="0 0 0 0 0 0 0 0 0 0 0 0 0 0 0 0 0 0 127 0" result="hardAlpha"/>
<feOffset dy="8"/>
<feComposite in2="hardAlpha" operator="out"/>
<feColorMatrix type="matrix" values="0 0 0 0 0 0 0 0 0 0 0 0 0 0 0 0 0 0 1 0"/>
<feBlend mode="normal" in2="BackgroundImageFix" result="effect1_dropShadow_718_542"/>
<feBlend mode="normal" in="SourceGraphic" in2="effect1_dropShadow_718_542" result="shape"/>
</filter>
<clipPath id="clip0_718_542">
<rect width="153" height="153" fill="white" transform="translate(22 20)"/>
</clipPath>
</defs>
</svg>
