<svg width="37" height="37" viewBox="0 0 37 37" fill="none" xmlns="http://www.w3.org/2000/svg">
<path d="M32.375 29.2913V30.833H4.625V29.2913L7.70833 26.208V16.958C7.70833 12.1788 10.8379 7.97009 15.4167 6.61342V6.16634C15.4167 5.34859 15.7415 4.56433 16.3198 3.9861C16.898 3.40786 17.6822 3.08301 18.5 3.08301C19.3178 3.08301 20.102 3.40786 20.6802 3.9861C21.2585 4.56433 21.5833 5.34859 21.5833 6.16634V6.61342C26.1621 7.97009 29.2917 12.1788 29.2917 16.958V26.208L32.375 29.2913ZM21.5833 32.3747C21.5833 33.1924 21.2585 33.9767 20.6802 34.5549C20.102 35.1332 19.3178 35.458 18.5 35.458C17.6822 35.458 16.898 35.1332 16.3198 34.5549C15.7415 33.9767 15.4167 33.1924 15.4167 32.3747" fill="black"/>
</svg>
