<svg width="141" height="63" viewBox="0 0 141 63" fill="none" xmlns="http://www.w3.org/2000/svg">
<g filter="url(#filter0_d_580_269)">
<path d="M60.1923 29.8572C58.4827 16.4293 45.9783 6 30.7858 6H28.305C12.6715 6 0 17.5487 0 31.797C0 34.2028 1.04864 36.5102 2.91522 38.2113C4.7818 39.9125 7.31343 40.8683 9.95318 40.8683H14.1455C14.3961 43.3754 15.6659 45.7066 17.7056 47.4043C19.7453 49.102 22.4076 50.0435 25.1699 50.0441H46.3126C50.0508 50.0441 53.636 48.6907 56.2794 46.2815C58.9227 43.8724 60.4077 40.6049 60.4077 37.1979V32.9972C60.4077 31.9328 60.3232 30.8886 60.1923 29.8572Z" fill="#C260FF"/>
<path d="M48.3262 50.0111V56.625C48.3259 56.8971 48.2372 57.1629 48.0713 57.3891C47.9053 57.6152 47.6695 57.7914 47.3938 57.8955C47.118 57.9996 46.8145 58.0268 46.5217 57.9738C46.229 57.9208 45.96 57.7899 45.7488 57.5976L37.4609 50.0441L48.3262 50.0111ZM18.4808 16.1595C18.5899 16.1284 18.6864 16.0682 18.7578 15.9868C18.8292 15.9054 18.8722 15.8064 18.8815 15.7025C19.0285 14.1059 19.1452 12.5038 19.1291 10.8797C18.5673 12.2634 18.1223 13.6655 17.7035 15.0712C13.9085 15.644 10.456 17.4164 7.95169 20.0776C5.37027 22.7881 3.89028 26.3814 4.13795 29.8572C5.20314 26.5392 6.94892 23.6139 9.39342 21.2594C11.8588 18.8967 14.9493 17.1513 18.368 16.1907L18.4808 16.1595ZM37.6179 11.7973C37.0743 10.7604 36.1138 9.91623 34.9801 9.34365C33.8485 8.7564 32.5235 8.47562 31.2107 8.46094C29.8978 8.47929 28.5749 8.76007 27.4432 9.34732C26.3116 9.91806 25.3491 10.7622 24.8034 11.7973C27.0365 10.8008 29.0783 10.2833 31.2107 10.2961C33.3431 10.2869 35.3788 10.8026 37.6179 11.7973ZM20.2467 30.037C19.6334 30.2161 19.0406 30.4491 18.4767 30.7326C18.459 30.5635 18.4301 30.3956 18.3901 30.2297C18.1732 29.413 17.715 28.6659 17.0652 28.0697C15.7745 26.8879 13.6884 26.3539 12.0816 27.1044C13.6421 27.8422 14.7012 28.4973 15.6416 29.3654C16.2839 29.9453 16.8175 30.5839 17.3471 31.3675C16.8437 31.6924 16.3564 32.0411 15.9154 32.4338C14.7174 33.5459 13.779 34.9021 13.2817 36.3794C12.7722 37.8475 12.6695 39.4239 13.0884 40.8682C13.8978 38.0017 15.2651 35.6086 17.337 33.7294C19.3929 31.8374 22.0247 30.5913 25.1699 29.8572C23.5852 29.4792 21.8555 29.5727 20.2467 30.037ZM44.3836 38.1852C43.5379 38.3265 42.4123 38.1815 41.3008 38.1669L38.0005 38.1155C36.5286 38.1246 35.0546 38.1614 33.5827 38.2164C34.6036 37.2016 35.0224 35.6233 34.2311 34.4451C33.4196 35.6288 32.8115 36.3519 32.0443 37.0401C31.5147 37.5264 30.957 37.9466 30.2301 38.4091C28.4219 38.5467 26.6136 38.7339 24.8054 39.0331C29.2051 39.7598 33.6028 39.9231 38.0025 39.9506L38.7194 39.9396C39.2409 40.2938 39.6819 40.6388 40.1007 41.0261C40.8638 41.7161 41.4719 42.4391 42.2874 43.621C42.7083 43.0172 42.7868 42.2813 42.6297 41.5913C42.4989 40.9545 42.1264 40.3782 41.6532 39.8864L42.9539 39.835C43.4815 39.8314 44.2104 39.7598 44.7883 39.5671C47.2671 38.8881 48.8054 36.473 48.3302 34.447C47.9074 36.4601 46.226 37.9044 44.3836 38.1852ZM57.1155 33.2761C56.5698 31.6869 55.557 30.2316 54.2643 29.0332C52.9494 27.8569 51.3506 26.9338 49.6068 26.4364C48.5431 26.1263 47.4314 25.9745 46.3146 25.9868C47.553 24.8086 48.5296 23.3937 49.0591 21.8485C49.6209 20.2703 49.7478 18.5764 49.333 17.011C48.5276 20.1179 47.0516 22.7533 44.7883 24.7976C42.5412 26.8585 39.6537 28.2 36.2447 28.9396C37.9622 29.3213 39.8228 29.2057 41.5545 28.6919C43.0586 28.2624 44.442 27.5027 45.6421 26.5502C48.4631 27.3302 50.9076 28.5469 52.8447 30.327C55.106 32.3751 56.5779 35.0067 57.3894 38.1136C57.8062 36.5501 57.6793 34.8544 57.1155 33.2761Z" fill="black"/>
</g>
<path d="M111.773 7.87488L136.779 51.1874C137.009 51.5864 137.131 52.0391 137.131 52.4999C137.131 52.9606 137.009 53.4133 136.779 53.8124C136.549 54.2114 136.217 54.5428 135.818 54.7732C135.419 55.0036 134.967 55.1249 134.506 55.1249H84.4943C84.0335 55.1249 83.5809 55.0036 83.1818 54.7732C82.7828 54.5428 82.4514 54.2114 82.2211 53.8124C81.9907 53.4133 81.8694 52.9606 81.8694 52.4999C81.8694 52.0391 81.9907 51.5864 82.2211 51.1874L107.227 7.87488C107.457 7.47587 107.789 7.14452 108.188 6.91415C108.587 6.68378 109.039 6.5625 109.5 6.5625C109.961 6.5625 110.413 6.68378 110.813 6.91415C111.212 7.14452 111.543 7.47587 111.773 7.87488ZM106.875 41.9999V47.2499H112.125V41.9999H106.875ZM106.875 23.6249V36.7499H112.125V23.6249H106.875Z" fill="black"/>
<defs>
<filter id="filter0_d_580_269" x="0" y="6" width="60.4077" height="55" filterUnits="userSpaceOnUse" color-interpolation-filters="sRGB">
<feFlood flood-opacity="0" result="BackgroundImageFix"/>
<feColorMatrix in="SourceAlpha" type="matrix" values="0 0 0 0 0 0 0 0 0 0 0 0 0 0 0 0 0 0 127 0" result="hardAlpha"/>
<feOffset dy="3"/>
<feColorMatrix type="matrix" values="0 0 0 0 0 0 0 0 0 0 0 0 0 0 0 0 0 0 1 0"/>
<feBlend mode="normal" in2="BackgroundImageFix" result="effect1_dropShadow_580_269"/>
<feBlend mode="normal" in="SourceGraphic" in2="effect1_dropShadow_580_269" result="shape"/>
</filter>
</defs>
</svg>
