<svg width="61" height="55" viewBox="0 0 61 55" fill="none" xmlns="http://www.w3.org/2000/svg">
<g filter="url(#filter0_d_664_480)">
<path d="M60.1923 23.8572C58.4827 10.4293 45.9783 0 30.7858 0H28.305C12.6715 0 0 11.5487 0 25.797C0 28.2028 1.04864 30.5102 2.91522 32.2113C4.7818 33.9125 7.31343 34.8683 9.95318 34.8683H14.1455C14.3961 37.3754 15.6659 39.7066 17.7056 41.4043C19.7453 43.102 22.4076 44.0435 25.1699 44.0441H46.3126C50.0509 44.0441 53.636 42.6907 56.2794 40.2815C58.9227 37.8724 60.4077 34.6049 60.4077 31.1979V26.9972C60.4077 25.9328 60.3232 24.8886 60.1923 23.8572Z" fill="#C260FF"/>
<path d="M48.326 44.0111V50.625C48.3257 50.8971 48.237 51.1629 48.071 51.3891C47.9051 51.6152 47.6693 51.7914 47.3935 51.8955C47.1177 51.9996 46.8143 52.0268 46.5215 51.9738C46.2287 51.9208 45.9598 51.7899 45.7486 51.5976L37.4606 44.0441L48.326 44.0111ZM18.4805 10.1595C18.5897 10.1284 18.6861 10.0682 18.7575 9.98683C18.8289 9.90541 18.872 9.80641 18.8812 9.70252C19.0282 8.10592 19.145 6.50382 19.1289 4.87969C18.5671 6.26341 18.1221 7.66548 17.7033 9.07122C13.9082 9.64397 10.4557 11.4164 7.95144 14.0776C5.37002 16.7881 3.89003 20.3814 4.1377 23.8572C5.20289 20.5392 6.94868 17.6139 9.39318 15.2594C11.8586 12.8967 14.949 11.1513 18.3678 10.1907L18.4805 10.1595ZM37.6177 5.79728C37.074 4.76041 36.1135 3.91623 34.9799 3.34365C33.8482 2.7564 32.5233 2.47562 31.2104 2.46094C29.8976 2.47929 28.5746 2.76007 27.443 3.34732C26.3114 3.91806 25.3489 4.76224 24.8032 5.79728C27.0363 4.80078 29.078 4.28326 31.2104 4.29611C33.3428 4.28693 35.3786 4.80262 37.6177 5.79728ZM20.2464 24.037C19.6331 24.2161 19.0404 24.4491 18.4765 24.7326C18.4588 24.5635 18.4299 24.3956 18.3899 24.2297C18.173 23.413 17.7148 22.6659 17.065 22.0697C15.7742 20.8879 13.6882 20.3539 12.0813 21.1044C13.6419 21.8422 14.701 22.4973 15.6413 23.3654C16.2837 23.9453 16.8173 24.5839 17.3469 25.3675C16.8435 25.6924 16.3562 26.0411 15.9152 26.4338C14.7171 27.5459 13.7788 28.9021 13.2814 30.3794C12.772 31.8475 12.6693 33.4239 13.0881 34.8682C13.8976 32.0017 15.2648 29.6086 17.3368 27.7294C19.3927 25.8374 22.0244 24.5913 25.1697 23.8572C23.585 23.4792 21.8553 23.5727 20.2464 24.037ZM44.3833 32.1852C43.5376 32.3265 42.412 32.1815 41.3005 32.1669L38.0003 32.1155C36.5283 32.1246 35.0544 32.1614 33.5824 32.2164C34.6033 31.2016 35.0222 29.6233 34.2308 28.4451C33.4193 29.6288 32.8112 30.3519 32.0441 31.0401C31.5145 31.5264 30.9567 31.9466 30.2298 32.4091C28.4216 32.5467 26.6134 32.7339 24.8052 33.0331C29.2049 33.7598 33.6026 33.9231 38.0023 33.9506L38.7191 33.9396C39.2406 34.2938 39.6816 34.6388 40.1004 35.0261C40.8636 35.7161 41.4717 36.4391 42.2872 37.621C42.708 37.0172 42.7866 36.2813 42.6295 35.5913C42.4986 34.9545 42.1261 34.3782 41.6529 33.8864L42.9537 33.835C43.4813 33.8314 44.2102 33.7598 44.7881 33.5671C47.2668 32.8881 48.8052 30.473 48.33 28.447C47.9071 30.4601 46.2258 31.9044 44.3833 32.1852ZM57.1153 27.2761C56.5696 25.6869 55.5568 24.2316 54.264 23.0332C52.9492 21.8569 51.3504 20.9338 49.6066 20.4364C48.5428 20.1263 47.4312 19.9745 46.3144 19.9868C47.5527 18.8086 48.5293 17.3937 49.0589 15.8485C49.6207 14.2703 49.7475 12.5764 49.3328 11.011C48.5273 14.1179 47.0514 16.7533 44.7881 18.7976C42.5409 20.8585 39.6534 22.2 36.2444 22.9396C37.962 23.3213 39.8226 23.2057 41.5542 22.6919C43.0584 22.2624 44.4417 21.5027 45.6418 20.5502C48.4629 21.3302 50.9074 22.5469 52.8445 24.327C55.1057 26.3751 56.5776 29.0067 57.3891 32.1136C57.8059 30.5501 57.6791 28.8544 57.1153 27.2761Z" fill="black"/>
</g>
<defs>
<filter id="filter0_d_664_480" x="0" y="0" width="60.4077" height="55" filterUnits="userSpaceOnUse" color-interpolation-filters="sRGB">
<feFlood flood-opacity="0" result="BackgroundImageFix"/>
<feColorMatrix in="SourceAlpha" type="matrix" values="0 0 0 0 0 0 0 0 0 0 0 0 0 0 0 0 0 0 127 0" result="hardAlpha"/>
<feOffset dy="3"/>
<feColorMatrix type="matrix" values="0 0 0 0 0 0 0 0 0 0 0 0 0 0 0 0 0 0 1 0"/>
<feBlend mode="normal" in2="BackgroundImageFix" result="effect1_dropShadow_664_480"/>
<feBlend mode="normal" in="SourceGraphic" in2="effect1_dropShadow_664_480" result="shape"/>
</filter>
</defs>
</svg>
