<svg width="29" height="29" viewBox="0 0 29 29" fill="none" xmlns="http://www.w3.org/2000/svg">
<path d="M23.5625 9.0625H3.625C3.38465 9.0625 3.15414 9.15798 2.98418 9.32793C2.81423 9.49789 2.71875 9.7284 2.71875 9.96875V15.4062C2.72146 16.9491 3.05141 18.4739 3.68683 19.8798C4.32224 21.2858 5.24866 22.541 6.40492 23.5625H3.625C3.38465 23.5625 3.15414 23.658 2.98418 23.8279C2.81423 23.9979 2.71875 24.2284 2.71875 24.4688C2.71875 24.7091 2.81423 24.9396 2.98418 25.1096C3.15414 25.2795 3.38465 25.375 3.625 25.375H23.5625C23.8029 25.375 24.0334 25.2795 24.2033 25.1096C24.3733 24.9396 24.4688 24.7091 24.4688 24.4688C24.4688 24.2284 24.3733 23.9979 24.2033 23.8279C24.0334 23.658 23.8029 23.5625 23.5625 23.5625H20.7826C22.1705 22.3324 23.223 20.7696 23.8412 19.0211C24.9922 18.9501 26.0729 18.443 26.8631 17.603C27.6532 16.7629 28.0933 15.6532 28.0938 14.5V13.5938C28.0938 12.392 27.6164 11.2394 26.7666 10.3897C25.9168 9.5399 24.7643 9.0625 23.5625 9.0625ZM26.2812 14.5C26.2808 15.0863 26.0909 15.6568 25.7398 16.1263C25.3886 16.5959 24.8951 16.9393 24.3328 17.1055C24.4226 16.5435 24.4681 15.9753 24.4688 15.4062V11.0313C24.9987 11.2187 25.4575 11.5657 25.7821 12.0246C26.1067 12.4835 26.2811 13.0317 26.2812 13.5938V14.5ZM12.6875 6.34375V2.71875C12.6875 2.4784 12.783 2.24789 12.9529 2.07793C13.1229 1.90798 13.3534 1.8125 13.5938 1.8125C13.8341 1.8125 14.0646 1.90798 14.2346 2.07793C14.4045 2.24789 14.5 2.4784 14.5 2.71875V6.34375C14.5 6.5841 14.4045 6.81461 14.2346 6.98457C14.0646 7.15452 13.8341 7.25 13.5938 7.25C13.3534 7.25 13.1229 7.15452 12.9529 6.98457C12.783 6.81461 12.6875 6.5841 12.6875 6.34375ZM16.3125 6.34375V2.71875C16.3125 2.4784 16.408 2.24789 16.5779 2.07793C16.7479 1.90798 16.9784 1.8125 17.2188 1.8125C17.4591 1.8125 17.6896 1.90798 17.8596 2.07793C18.0295 2.24789 18.125 2.4784 18.125 2.71875V6.34375C18.125 6.5841 18.0295 6.81461 17.8596 6.98457C17.6896 7.15452 17.4591 7.25 17.2188 7.25C16.9784 7.25 16.7479 7.15452 16.5779 6.98457C16.408 6.81461 16.3125 6.5841 16.3125 6.34375ZM9.0625 6.34375V2.71875C9.0625 2.4784 9.15798 2.24789 9.32793 2.07793C9.49789 1.90798 9.7284 1.8125 9.96875 1.8125C10.2091 1.8125 10.4396 1.90798 10.6096 2.07793C10.7795 2.24789 10.875 2.4784 10.875 2.71875V6.34375C10.875 6.5841 10.7795 6.81461 10.6096 6.98457C10.4396 7.15452 10.2091 7.25 9.96875 7.25C9.7284 7.25 9.49789 7.15452 9.32793 6.98457C9.15798 6.81461 9.0625 6.5841 9.0625 6.34375Z" fill="white"/>
</svg>
