<svg width="69" height="67" viewBox="0 0 69 67" fill="none" xmlns="http://www.w3.org/2000/svg">
<g clip-path="url(#clip0_496_1193)" filter="url(#filter0_d_496_1193)">
<path fill-rule="evenodd" clip-rule="evenodd" d="M38.0419 3.6265C39.8589 1.60517 43.398 2.9865 43.1105 5.60517L41.0808 23.9998H57.4999C58.0462 24 58.5811 24.1446 59.042 24.4166C59.503 24.6885 59.8708 25.0767 60.1025 25.5356C60.3341 25.9945 60.4201 26.5051 60.3502 27.0076C60.2803 27.5102 60.0575 27.9838 59.7079 28.3732L30.9579 60.3732C29.1409 62.3945 25.6018 61.0132 25.8893 58.3945L27.919 39.9998H11.4999C10.9536 39.9996 10.4187 39.8551 9.95776 39.5831C9.49684 39.3111 9.12901 38.923 8.89733 38.4641C8.66565 38.0052 8.57972 37.4946 8.6496 36.9921C8.71948 36.4895 8.94227 36.0158 9.2919 35.6265L38.0419 3.6265Z" fill="#CCFF60"/>
</g>
<defs>
<filter id="filter0_d_496_1193" x="0" y="0" width="69" height="69" filterUnits="userSpaceOnUse" color-interpolation-filters="sRGB">
<feFlood flood-opacity="0" result="BackgroundImageFix"/>
<feColorMatrix in="SourceAlpha" type="matrix" values="0 0 0 0 0 0 0 0 0 0 0 0 0 0 0 0 0 0 127 0" result="hardAlpha"/>
<feOffset dy="5"/>
<feColorMatrix type="matrix" values="0 0 0 0 0 0 0 0 0 0 0 0 0 0 0 0 0 0 1 0"/>
<feBlend mode="normal" in2="BackgroundImageFix" result="effect1_dropShadow_496_1193"/>
<feBlend mode="normal" in="SourceGraphic" in2="effect1_dropShadow_496_1193" result="shape"/>
</filter>
<clipPath id="clip0_496_1193">
<rect width="69" height="64" fill="white"/>
</clipPath>
</defs>
</svg>
