<svg width="283" height="61" viewBox="0 0 283 61" fill="none" xmlns="http://www.w3.org/2000/svg">
<path d="M0 16.9484H16.5427C21.5078 16.9484 25.5217 17.9238 28.8337 20.4785C32.14 23.0333 34.2107 26.9292 34.2107 32.0387C34.2107 37.1482 32.1458 41.0441 28.8337 43.5988C25.5217 46.1536 21.5078 47.1871 16.5427 47.1871H12.1692V61H0V16.9484ZM15.5392 37.392C17.9 37.392 19.2051 37.0262 20.3246 36.1727C21.444 35.3192 22.0357 33.8618 22.0357 32.1548C22.0357 30.4478 21.444 28.9904 20.3246 28.1369C19.1993 27.2834 17.9 26.9176 15.5392 26.9176H12.1692V37.3804H15.5392V37.392Z" fill="black"/>
<path d="M36.9717 31.278C36.9717 22.3307 44.0018 15.3981 53.7522 15.3981C63.5027 15.3981 70.5327 22.3365 70.5327 31.278C70.5327 40.2196 63.5027 47.158 53.7522 47.158C44.0018 47.158 36.9717 40.2196 36.9717 31.278ZM58.9494 31.278C58.9494 27.9917 56.7626 25.437 53.7522 25.437C50.7418 25.437 48.5551 27.9917 48.5551 31.278C48.5551 34.5644 50.7418 37.1191 53.7522 37.1191C56.7626 37.1191 58.9494 34.5644 58.9494 31.278Z" fill="black"/>
<path d="M93.8155 44.9633L93.6995 44.9052C91.7505 46.4264 89.21 47.158 86.7274 47.158C79.7554 47.158 73.4329 41.375 73.4329 31.9457C73.4329 22.5165 80.2252 15.3981 88.7343 15.3981C90.4455 15.3981 92.1044 15.7639 93.4617 16.3096L93.5777 16.2516V0H105.277V46.4845H93.8155V44.9633ZM93.5777 36.9333V25.8608C92.7482 25.437 91.8666 25.1931 90.6253 25.1931C86.8434 25.1931 85.2483 28.1775 85.2483 31.458C85.2483 35.1101 86.9594 37.8449 90.3295 37.8449C91.6287 37.8449 92.754 37.421 93.5777 36.9333Z" fill="black"/>
<path d="M111.542 16.0657H123.003V18.1966L123.119 18.2547C125.184 16.7334 127.904 15.3922 131.216 15.3922C134.233 15.3922 137.539 16.5476 139.43 19.1662C142.8 16.4896 146.048 15.3922 149.418 15.3922C152.788 15.3922 155.265 16.4896 157.04 18.3708C158.815 20.2578 159.76 22.8706 159.76 27.2543V46.4844H148.061V29.0832C148.061 27.742 147.823 26.7724 147.231 26.1627C146.64 25.5531 145.874 25.3092 144.929 25.3092C143.745 25.3092 142.446 25.855 141.501 26.7085V46.4844H129.801V29.0832C129.801 27.742 129.563 26.7724 128.972 26.1627C128.38 25.5531 127.614 25.3092 126.669 25.3092C125.486 25.3092 124.186 25.855 123.241 26.7085V46.4844H111.542V16.0657Z" fill="black"/>
<path d="M181.506 47.158C171.106 47.158 164.25 41.3169 164.25 31.458C164.25 21.599 171.518 15.3922 180.027 15.3922C187.474 15.3922 194.562 19.892 194.562 30.9703C194.562 31.9457 194.504 33.2231 194.383 34.1346H176.065C177.01 37.299 179.847 38.3964 183.217 38.3964C186.349 38.3964 189.777 37.421 192.967 35.6559V44.7832C189.951 46.3044 185.583 47.158 181.506 47.158ZM184.104 27.8697C183.635 24.8854 181.918 23.9738 179.969 23.9738C177.724 23.9738 176.303 25.315 175.833 27.8697H184.104Z" fill="black"/>
<path d="M199.47 16.0657H210.931V18.1966L211.047 18.2547C213.112 16.7334 215.832 15.3922 219.145 15.3922C222.161 15.3922 225.467 16.5476 227.358 19.1662C230.728 16.4896 233.976 15.3922 237.346 15.3922C240.716 15.3922 243.193 16.4896 244.968 18.3708C246.743 20.2578 247.688 22.8706 247.688 27.2543V46.4844H235.989V29.0832C235.989 27.742 235.751 26.7724 235.159 26.1627C234.568 25.5531 233.802 25.3092 232.857 25.3092C231.673 25.3092 230.374 25.855 229.429 26.7085V46.4844H217.729V29.0832C217.729 27.742 217.491 26.7724 216.9 26.1627C216.308 25.5531 215.542 25.3092 214.597 25.3092C213.414 25.3092 212.114 25.855 211.169 26.7085V46.4844H199.47V16.0657Z" fill="black"/>
<g clip-path="url(#clip0_298_297)">
<path d="M271 19C264.373 19 259 24.373 259 31C259 37.627 264.373 43 271 43C277.627 43 283 37.627 283 31C283 24.373 277.627 19 271 19ZM268 36V26L277 31.146L268 36Z" fill="#FF0000"/>
</g>
<defs>
<clipPath id="clip0_298_297">
<rect width="24" height="24" fill="white" transform="translate(259 19)"/>
</clipPath>
</defs>
</svg>
