<svg width="127" height="35" viewBox="0 0 127 35" fill="none" xmlns="http://www.w3.org/2000/svg">
<path d="M21.8076 22.3315C21.8076 18.5179 24.8134 15.563 28.9823 15.563C33.1513 15.563 36.157 18.5203 36.157 22.3315C36.157 26.1427 33.1513 29.1 28.9823 29.1C24.8134 29.1 21.8076 26.1427 21.8076 22.3315ZM31.2044 22.3315C31.2044 20.9308 30.2695 19.8419 28.9823 19.8419C27.6952 19.8419 26.7602 20.9308 26.7602 22.3315C26.7602 23.7322 27.6952 24.8211 28.9823 24.8211C30.2695 24.8211 31.2044 23.7322 31.2044 22.3315Z" fill="white"/>
<path d="M46.1118 28.1647L46.0622 28.1399C45.2289 28.7883 44.1426 29.1001 43.0812 29.1001C40.1002 29.1001 37.397 26.6353 37.397 22.6162C37.397 18.5972 40.3011 15.5631 43.9393 15.5631C44.6709 15.5631 45.3802 15.719 45.9605 15.9516L46.0101 15.9269V9H51.0123V28.8131H46.1118V28.1647ZM46.0101 24.7421V20.0227C45.6555 19.842 45.2785 19.7381 44.7478 19.7381C43.1308 19.7381 42.4488 21.0101 42.4488 22.4083C42.4488 23.965 43.1804 25.1306 44.6213 25.1306C45.1768 25.1306 45.6579 24.9499 46.0101 24.7421Z" fill="white"/>
<path d="M53.6909 15.8476H58.5914V16.7559L58.641 16.7806C59.5239 16.1322 60.6871 15.5605 62.1032 15.5605C63.3928 15.5605 64.8064 16.053 65.6149 17.1692C67.0558 16.0283 68.4446 15.5605 69.8855 15.5605C71.3264 15.5605 72.3853 16.0283 73.1442 16.8301C73.9031 17.6344 74.3074 18.7481 74.3074 20.6165V28.813H69.3052V21.3961C69.3052 20.8244 69.2035 20.4111 68.9505 20.1513C68.6976 19.8914 68.3702 19.7875 67.9659 19.7875C67.46 19.7875 66.9045 20.0201 66.5002 20.3839V28.813H61.498V21.3961C61.498 20.8244 61.3964 20.4111 61.1434 20.1513C60.8904 19.8914 60.5631 19.7875 60.1588 19.7875C59.6529 19.7875 59.0974 20.0201 58.6931 20.3839V28.813H53.6909V15.8476Z" fill="white"/>
<path d="M83.6051 29.1C79.1584 29.1 76.2271 26.6104 76.2271 22.4083C76.2271 18.2061 79.3345 15.5605 82.9727 15.5605C86.1571 15.5605 89.1877 17.4785 89.1877 22.2004C89.1877 22.6161 89.1629 23.1606 89.1108 23.5491H81.2789C81.6831 24.8979 82.8958 25.3656 84.3367 25.3656C85.6759 25.3656 87.1416 24.9498 88.5056 24.1975V28.0879C87.216 28.7363 85.3486 29.1 83.6051 29.1ZM84.7162 20.8788C84.5153 19.6068 83.7812 19.2183 82.9479 19.2183C81.9881 19.2183 81.3805 19.7899 81.1797 20.8788H84.7162Z" fill="white"/>
<path d="M91.2856 15.8476H96.1862V16.7559L96.2358 16.7806C97.1187 16.1322 98.2818 15.5605 99.6979 15.5605C100.987 15.5605 102.401 16.053 103.21 17.1692C104.65 16.0283 106.039 15.5605 107.48 15.5605C108.921 15.5605 109.98 16.0283 110.739 16.8301C111.498 17.6344 111.902 18.7481 111.902 20.6165V28.813H106.9V21.3961C106.9 20.8244 106.798 20.4111 106.545 20.1513C106.292 19.8914 105.965 19.7875 105.561 19.7875C105.055 19.7875 104.499 20.0201 104.095 20.3839V28.813H99.0928V21.3961C99.0928 20.8244 98.9911 20.4111 98.7381 20.1513C98.4852 19.8914 98.1578 19.7875 97.7535 19.7875C97.2476 19.7875 96.6921 20.0201 96.2879 20.3839V28.813H91.2856V15.8476Z" fill="white"/>
<g clip-path="url(#clip0_664_383)">
<mask id="mask0_664_383" style="mask-type:luminance" maskUnits="userSpaceOnUse" x="-528" y="-297" width="1409" height="749">
<path d="M-527.049 -296.951H880.988V451.081H-527.049V-296.951Z" fill="white"/>
</mask>
<g mask="url(#mask0_664_383)">
<path d="M7.98535 3.042V8.24202C11.7226 8.26323 14.7462 11.1312 14.7462 14.6676C14.7462 18.204 11.7226 21.0719 7.98535 21.0931V26.4155C14.7872 26.3834 20.2918 21.1635 20.2918 14.7288C20.2918 8.29398 14.7872 3.07413 7.98535 3.042Z" fill="#06D6A0"/>
</g>
<mask id="mask1_664_383" style="mask-type:luminance" maskUnits="userSpaceOnUse" x="-215" y="-115" width="582" height="310">
<path d="M-214.589 -114.056H366.86V194.843H-214.589V-114.056Z" fill="white"/>
</mask>
<g mask="url(#mask1_664_383)">
<path d="M1.21973 14.652C1.21973 11.9865 3.50679 9.8254 6.32762 9.8254C9.14846 9.8254 11.4355 11.9865 11.4355 14.652C11.4355 17.3174 9.14846 19.4785 6.32762 19.4785C3.50679 19.4785 1.21973 17.3174 1.21973 14.652Z" fill="#11151C"/>
</g>
</g>
<defs>
<clipPath id="clip0_664_383">
<rect width="22" height="31" fill="white"/>
</clipPath>
</defs>
</svg>
