<svg width="22" height="31" viewBox="0 0 22 31" fill="none" xmlns="http://www.w3.org/2000/svg">
<g clip-path="url(#clip0_539_300)">
<mask id="mask0_539_300" style="mask-type:luminance" maskUnits="userSpaceOnUse" x="-528" y="-297" width="1409" height="749">
<path d="M-527.05 -296.951H880.988V451.081H-527.05V-296.951Z" fill="white"/>
</mask>
<g mask="url(#mask0_539_300)">
<path d="M7.98486 3.04249V8.24251C11.7221 8.26372 14.7457 11.1317 14.7457 14.6681C14.7457 18.2045 11.7221 21.0724 7.98486 21.0936V26.416C14.7867 26.3839 20.2914 21.164 20.2914 14.7293C20.2914 8.29446 14.7867 3.07462 7.98486 3.04249Z" fill="#06D6A0"/>
</g>
<mask id="mask1_539_300" style="mask-type:luminance" maskUnits="userSpaceOnUse" x="-215" y="-115" width="582" height="310">
<path d="M-214.589 -114.056H366.859V194.843H-214.589V-114.056Z" fill="white"/>
</mask>
<g mask="url(#mask1_539_300)">
<path d="M1.21948 14.652C1.21948 11.9865 3.50654 9.8254 6.32738 9.8254C9.14821 9.8254 11.4353 11.9865 11.4353 14.652C11.4353 17.3174 9.14821 19.4785 6.32738 19.4785C3.50654 19.4785 1.21948 17.3174 1.21948 14.652Z" fill="#11151C"/>
</g>
</g>
<defs>
<clipPath id="clip0_539_300">
<rect width="22" height="31" fill="white"/>
</clipPath>
</defs>
</svg>
