<svg width="342" height="290" viewBox="0 0 342 290" fill="none" xmlns="http://www.w3.org/2000/svg">
<g clip-path="url(#clip0_718_541)" filter="url(#filter0_d_718_541)">
<rect x="49.0005" y="92" width="174" height="125" fill="black"/>
<path fill-rule="evenodd" clip-rule="evenodd" d="M42.3969 61.5992C32.7394 72.2057 31.8316 90.0343 30.0165 125.682L28.0912 163.494C26.2761 199.142 25.3683 216.971 33.8984 228.503C42.4204 240.045 57.0543 240.79 86.3143 242.28L101.833 243.07C131.093 244.56 145.727 245.305 155.377 234.689C165.034 224.082 165.942 206.254 167.757 170.606L169.683 132.793C171.498 97.1458 172.405 79.3173 163.875 67.7847C155.353 56.243 140.719 55.4979 111.459 54.008L95.941 53.2178C66.6809 51.7279 52.047 50.9828 42.3969 61.5992ZM69.1736 120.568C67.6302 120.489 66.112 121.161 64.9529 122.435C63.7939 123.709 63.089 125.481 62.9932 127.361C62.8975 129.241 63.4188 131.076 64.4424 132.461C65.4661 133.846 66.9082 134.669 68.4516 134.747L130.525 137.908C132.069 137.986 133.587 137.315 134.746 136.041C135.905 134.767 136.61 132.995 136.706 131.114C136.802 129.234 136.28 127.399 135.257 126.014C134.233 124.629 132.791 123.807 131.247 123.728L69.1736 120.568ZM67.2483 158.38C65.7049 158.301 64.1867 158.973 63.0276 160.247C61.8686 161.521 61.1636 163.293 61.0679 165.173C60.9721 167.054 61.4934 168.888 62.5171 170.274C63.5407 171.659 64.9829 172.481 66.5263 172.56L105.322 174.535C106.866 174.614 108.384 173.942 109.543 172.668C110.702 171.394 111.407 169.622 111.503 167.742C111.599 165.861 111.077 164.027 110.054 162.641C109.03 161.256 107.588 160.434 106.044 160.355L67.2483 158.38Z" fill="#DDDDDD"/>
</g>
<g filter="url(#filter1_d_718_541)">
<path fill-rule="evenodd" clip-rule="evenodd" d="M138.057 46.484C127.381 60.6078 128.426 82.484 130.516 126.225L132.732 172.622C134.822 216.363 135.867 238.239 147.841 251.281C159.806 264.334 178.031 263.464 214.472 261.723L233.799 260.8C270.239 259.059 288.464 258.188 299.13 244.053C309.807 229.929 308.762 208.053 306.672 164.312L304.456 117.915C302.366 74.1743 301.321 52.2981 289.347 39.2564C277.382 26.2027 259.156 27.0733 222.716 28.8142L203.389 29.7375C166.949 31.4784 148.724 32.349 138.057 46.484ZM178.417 115.217C176.495 115.309 174.695 116.314 173.414 118.01C172.132 119.706 171.475 121.956 171.585 124.263C171.695 126.57 172.564 128.746 174.001 130.313C175.439 131.879 177.326 132.708 179.248 132.616L256.555 128.923C258.477 128.831 260.276 127.826 261.558 126.13C262.839 124.434 263.497 122.184 263.387 119.877C263.276 117.57 262.407 115.394 260.97 113.827C259.533 112.261 257.646 111.432 255.723 111.524L178.417 115.217ZM180.633 161.614C178.711 161.706 176.911 162.711 175.63 164.407C174.349 166.103 173.691 168.353 173.801 170.66C173.912 172.967 174.781 175.143 176.218 176.71C177.655 178.276 179.542 179.105 181.464 179.013L229.781 176.705C231.703 176.613 233.503 175.608 234.784 173.912C236.065 172.216 236.723 169.966 236.613 167.659C236.503 165.352 235.634 163.176 234.196 161.609C232.759 160.043 230.872 159.214 228.95 159.306L180.633 161.614Z" fill="white"/>
</g>
<defs>
<filter id="filter0_d_718_541" x="0" y="29.9658" width="201.773" height="240.356" filterUnits="userSpaceOnUse" color-interpolation-filters="sRGB">
<feFlood flood-opacity="0" result="BackgroundImageFix"/>
<feColorMatrix in="SourceAlpha" type="matrix" values="0 0 0 0 0 0 0 0 0 0 0 0 0 0 0 0 0 0 127 0" result="hardAlpha"/>
<feOffset dx="4" dy="4"/>
<feColorMatrix type="matrix" values="0 0 0 0 0 0 0 0 0 0 0 0 0 0 0 0 0 0 1 0"/>
<feBlend mode="normal" in2="BackgroundImageFix" result="effect1_dropShadow_718_541"/>
<feBlend mode="normal" in="SourceGraphic" in2="effect1_dropShadow_718_541" result="shape"/>
</filter>
<filter id="filter1_d_718_541" x="95.9844" y="0.537598" width="249.22" height="293.462" filterUnits="userSpaceOnUse" color-interpolation-filters="sRGB">
<feFlood flood-opacity="0" result="BackgroundImageFix"/>
<feColorMatrix in="SourceAlpha" type="matrix" values="0 0 0 0 0 0 0 0 0 0 0 0 0 0 0 0 0 0 127 0" result="hardAlpha"/>
<feOffset dx="4" dy="4"/>
<feColorMatrix type="matrix" values="0 0 0 0 0 0 0 0 0 0 0 0 0 0 0 0 0 0 1 0"/>
<feBlend mode="normal" in2="BackgroundImageFix" result="effect1_dropShadow_718_541"/>
<feBlend mode="normal" in="SourceGraphic" in2="effect1_dropShadow_718_541" result="shape"/>
</filter>
<clipPath id="clip0_718_541">
<rect width="186.463" height="227.168" fill="white" transform="translate(11.5522 29.9658) rotate(2.91488)"/>
</clipPath>
</defs>
</svg>
