<svg width="85" height="81" viewBox="0 0 85 81" fill="none" xmlns="http://www.w3.org/2000/svg">
<g filter="url(#filter0_d_467_271)">
<rect width="85" height="78" rx="20" fill="#C260FF"/>
<rect x="1.5" y="1.5" width="82" height="75" rx="18.5" stroke="black" stroke-width="3"/>
</g>
<path d="M48.4309 58.72C47.4443 58.2667 46.4709 57.6533 45.5109 56.88C44.5776 56.1333 43.7109 55.2667 42.9109 54.28C42.1376 53.32 41.4843 52.3067 40.9509 51.24L47.3909 48.2C48.0043 49.5333 48.9376 50.76 50.1909 51.88C51.4443 53.0267 52.7643 53.9333 54.1509 54.6L48.4309 58.72ZM26.3509 36.88C26.3509 33.9733 26.9376 31.4267 28.1109 29.24C29.3109 27.0533 31.0043 25.36 33.1909 24.16C35.3776 22.9333 37.9643 22.32 40.9509 22.32C43.9643 22.32 46.5643 22.9333 48.7509 24.16C50.9376 25.36 52.6309 27.0533 53.8309 29.24C55.0309 31.4267 55.6309 33.9733 55.6309 36.88C55.6309 39.7867 55.0309 42.3333 53.8309 44.52C52.6309 46.7067 50.9376 48.4133 48.7509 49.64C46.5643 50.8667 43.9643 51.48 40.9509 51.48C37.9643 51.48 35.3776 50.8667 33.1909 49.64C31.0043 48.4133 29.3109 46.7067 28.1109 44.52C26.9376 42.3067 26.3509 39.76 26.3509 36.88ZM35.3909 36.88C35.3909 39.2267 35.8309 41.0533 36.7109 42.36C37.6176 43.6667 39.0309 44.32 40.9509 44.32C42.8709 44.32 44.2843 43.6667 45.1909 42.36C46.1243 41.0267 46.5909 39.2 46.5909 36.88C46.5909 34.56 46.1243 32.7467 45.1909 31.44C44.2843 30.1333 42.8709 29.48 40.9509 29.48C39.0309 29.48 37.6176 30.1333 36.7109 31.44C35.8309 32.72 35.3909 34.5333 35.3909 36.88Z" fill="#080808"/>
<defs>
<filter id="filter0_d_467_271" x="0" y="0" width="85" height="81" filterUnits="userSpaceOnUse" color-interpolation-filters="sRGB">
<feFlood flood-opacity="0" result="BackgroundImageFix"/>
<feColorMatrix in="SourceAlpha" type="matrix" values="0 0 0 0 0 0 0 0 0 0 0 0 0 0 0 0 0 0 127 0" result="hardAlpha"/>
<feOffset dy="3"/>
<feComposite in2="hardAlpha" operator="out"/>
<feColorMatrix type="matrix" values="0 0 0 0 0 0 0 0 0 0 0 0 0 0 0 0 0 0 1 0"/>
<feBlend mode="normal" in2="BackgroundImageFix" result="effect1_dropShadow_467_271"/>
<feBlend mode="normal" in="SourceGraphic" in2="effect1_dropShadow_467_271" result="shape"/>
</filter>
</defs>
</svg>
