<svg width="103" height="103" viewBox="0 0 103 103" fill="none" xmlns="http://www.w3.org/2000/svg">
<path d="M59.2527 42.8793C58.4521 42.1812 57.586 41.5718 56.6332 41.1177C58.8765 33.1559 60.0167 27.5868 59.3304 27.3286C58.6226 27.1369 56.2876 32.3204 53.4467 40.0894C52.4081 39.9008 51.349 39.8888 50.3134 40.031C37.8305 16.5052 27.1273 -0.619053 25.3266 0.30244C23.4821 1.24641 31.111 19.9439 42.9351 43.8069C42.2365 44.6076 41.6267 45.4736 41.1497 46.3825C33.1866 44.1425 27.594 42.9606 27.3581 43.6907C27.1435 44.3545 32.35 46.7311 40.12 49.5685C39.931 50.607 39.9186 51.6658 40.0166 52.7236C16.5245 65.189 -0.630258 75.8516 0.313308 77.6954C1.25687 79.5391 19.9178 71.9281 43.7469 60.1211C44.5476 60.8193 45.4361 61.4726 46.389 61.9267C44.167 69.8221 43.0269 75.3913 43.7132 75.6494C44.377 75.8636 46.7345 70.724 49.5314 62.9775C50.5701 63.1661 51.6517 63.222 52.7537 63.1012C65.1916 86.5392 75.8724 103.62 77.673 102.698C79.5176 101.754 71.9111 83.1004 60.1319 59.3253C60.8745 58.5021 61.4618 57.5922 61.9163 56.6394C69.813 58.858 75.3831 59.996 75.6416 59.3098C75.8561 58.646 70.716 56.2908 62.9461 53.4534C63.1351 52.415 63.1474 51.3561 63.027 50.2544C86.5191 37.789 103.63 27.1489 102.686 25.3051C101.809 23.4828 83.1043 31.1163 59.2527 42.8793Z" fill="#8E79E2"/>
</svg>
