<svg width="27" height="36" viewBox="0 0 27 36" fill="none" xmlns="http://www.w3.org/2000/svg">
<path d="M11.4007 0C9.31061 0 7.6005 2.01355 7.6005 4.47455H3.80025C1.71011 4.47455 0 6.48809 0 8.94909H26.6017C26.6017 6.48809 24.8916 4.47455 22.8015 4.47455H19.0012C19.0012 2.01355 17.2911 0 15.201 0H11.4007ZM3.80025 13.4236V34.9462C3.80025 35.4384 4.10427 35.7964 4.5223 35.7964H22.1175C22.5355 35.7964 22.8395 35.4384 22.8395 34.9462V13.4236H19.0393V29.0846C19.0393 30.3374 18.2032 31.3218 17.1391 31.3218C16.0751 31.3218 15.239 30.3374 15.239 29.0846V13.4236H11.4388V29.0846C11.4388 30.3374 10.6027 31.3218 9.53863 31.3218C8.47456 31.3218 7.6385 30.3374 7.6385 29.0846V13.4236H3.83825H3.80025Z" fill="white"/>
</svg>
